<?xml version="1.0" encoding="utf-8"?>
<!-- Generator: Adobe Illustrator 22.0.1, SVG Export Plug-In . SVG Version: 6.00 Build 0)  -->
<svg version="1.1" id="Layer_1" xmlns="http://www.w3.org/2000/svg" xmlns:xlink="http://www.w3.org/1999/xlink" x="0px" y="0px"
	 viewBox="0 0 500 500" style="enable-background:new 0 0 500 500;" xml:space="preserve">
<path d="M260.2,335.2c-0.5,0.5-1,0.8-1.5,0.8l0.3-0.4l-1.1,0.3c-1.4-0.5-2.5-2.5-2.8-5.1l0.5-0.1l-0.6-0.2c0-0.3,0-0.7,0-1
	c0-2.4,0.7-4.5,1.8-5.6l0.9-0.2l-0.5-0.2c0.4-0.4,0.9-0.5,1.4-0.5c0.2,0,0.4,0,0.5,0.1c0.1,0,0.3,0.1,0.4,0.2
	c0.3,0.1,0.5,0.3,0.7,0.6c-2.4,0.4-4.2,2.5-4.2,4.9v1.5C256,332.7,257.8,334.8,260.2,335.2z"/>
<path d="M275,328.8v1.5c0,0.3,0,0.6-0.1,0.8l-2.1-0.4l1.7,1.5c-0.2,0.4-0.4,0.7-0.6,1l-2.1,0.8l1.1,0.1c-0.8,0.6-1.8,1-3,1h-7.3
	l0.4-1.6l-0.8,1.6H261c-0.3,0-0.5,0-0.8-0.1c1.1-1.1,1.8-3.2,1.8-5.7c0-1.4-0.2-2.7-0.7-3.8l2.3-1.7l1.5,1.8l0.8-2.1h4
	c1.1,0,2.2,0.4,3,1l0,1.1l0.7-0.6C274.5,326.3,275,327.4,275,328.8z"/>
<path d="M256,330.2v-0.7c0,0.6,0,1.2,0.1,1.7C256,330.9,256,330.6,256,330.2z"/>
<path d="M256.1,327.8c-0.1,0.5-0.1,1.1-0.1,1.7v-0.7C256,328.4,256,328.1,256.1,327.8z"/>
<path d="M262,329.5c0,2.4-0.7,4.6-1.8,5.7c-0.8-0.1-1.6-0.5-2.2-1c0.6-0.7,1-2.5,1-4.7s-0.4-4-1-4.7c0.6-0.5,1.4-0.8,2.2-1
	c0.3,0.3,0.6,0.7,0.8,1.2l-0.8,1.5l1.1-0.8C261.8,326.8,262,328.1,262,329.5z"/>
<path d="M276.1,344h-18.8c0.4-0.5,0.8-1,1.2-1.5l0.5,0.5L259,342c0.8-1,1.5-2.1,2.3-3.3l0.9-0.1l-0.6-0.4c0.3-0.4,0.5-0.8,0.8-1.3
	c2.7-4.9,3.9-9.4,4.4-12.9c0,2.5,0.5,6.1,2.3,10.1l-1.6,1.2l2.5,0.5c0.1,0.2,0.2,0.3,0.3,0.5c0.3,0.5,0.6,1,0.9,1.5l0,2.2l0.9-0.9
	C273.3,341,274.8,342.7,276.1,344z"/>
</svg>
