<?xml version="1.0" encoding="utf-8"?>
<!-- Generator: Adobe Illustrator 22.0.1, SVG Export Plug-In . SVG Version: 6.00 Build 0)  -->
<svg version="1.1" id="Layer_1" xmlns="http://www.w3.org/2000/svg" xmlns:xlink="http://www.w3.org/1999/xlink" x="0px" y="0px"
	 viewBox="0 0 288 288" style="enable-background:new 0 0 288 288;" xml:space="preserve">
<style type="text/css">
	.st0{fill:none;stroke:#FFFFFF;stroke-width:0.1;stroke-miterlimit:10;}
</style>
<path d="M143,143.5l-9.2,28.3l-7.1-4.9l-24.8,9.8l1.1,20.5l-0.1-0.1l-2.5,4.4c-6.1-4.5-11.4-9.9-15.8-16l5.6-7.3l-7.5,4.4
	c-3-4.6-5.5-9.5-7.3-14.8h2.3l-4.8-8.3v0c-1.2-5.2-1.8-10.6-1.8-16.1c0-2.2,0.1-4.3,0.3-6.4h4.4l-3.3-7.4v0
	c1.4-6.9,3.7-13.5,6.9-19.5h9.1l-0.1-0.2l24.2,18.5l22.5-6.3l-2.3,12.5L143,143.5z"/>
<path d="M181.6,87.9l-24.4,9.8l2.3,19.8L144,142.5l-10.3-8.8l2.3-12.5l-22.5,6.3l-24.2-18.5l-4.3-7.5c2.2-3.1,4.6-6,7.2-8.8l0,0
	c3.8-4,8.2-7.6,12.9-10.6l2.9,2.2l0.6-4.3c2.2-1.3,4.5-2.4,6.8-3.4h10.4l-1.8-3.1c0.2-0.1,0.4-0.1,0.7-0.2c4.5-1.3,9.1-2.1,13.9-2.5
	l1.1,1.6l0.3-1.7c1.4-0.1,2.8-0.1,4.2-0.1c4.7,0,9.2,0.4,13.6,1.3l2.3,3.3l0.6-2.7c4.5,1.1,8.9,2.6,13.1,4.4l0.4,3.6l3.8-1.5h0
	c2.3,1.2,4.5,2.6,6.7,4L181.6,87.9z"/>
<path d="M210.8,151h5.8c-0.5,4.5-1.3,8.9-2.6,13.1v0l-6.7,2.8l0,0l-25.8,8.3l-5.8-11l-19.8-0.8l-11-19.9l15.5-25.1l-2.3-19.8
	l24.4-9.8l-0.1,0.1h9.5c1.4,1.2,2.8,2.5,4.1,3.8l2.1,6.2l-0.3-4.3c4.7,5.1,8.7,10.9,11.8,17.2l-3.2,2.4h4.3c0.2,0.5,0.5,1.1,0.7,1.6
	c1.6,3.8,2.8,7.7,3.8,11.8L211,135h5.5c0.2,1.8,0.3,3.5,0.4,5.3L210.8,151z"/>
<path d="M212.1,171.8c-1.9,4.8-4.3,9.4-7.2,13.7l-1-1.6l-6.1,10.5l0,0c-2.3,2.5-4.8,4.9-7.5,7l-3.4-5.9l-7.7,13.4
	c-4,2.2-8.3,4-12.7,5.3l-3.9-5.5l-0.1,6.7c-5.6,1.4-11.5,2.1-17.5,2.1c-4.1,0-8.1-0.3-12-1l-2.1-9.4l-2,8.6
	c-4.8-1.1-9.3-2.6-13.7-4.6c-1.7-0.8-3.3-1.6-4.9-2.5l-5.4-9.4l-1.1-20.5l21.8-8.6l9,5.1l10.3-29.7l11,19.9l19.8,0.8l5.8,11
	l22.1-6.7l0.7-0.3L212.1,171.8z"/>
<line class="st0" x1="105.2" y1="200.9" x2="105" y2="196.2"/>
<line class="st0" x1="207.4" y1="165.9" x2="207.3" y2="165.9"/>
</svg>
