<?xml version="1.0" encoding="utf-8"?>
<!-- Generator: Adobe Illustrator 22.0.1, SVG Export Plug-In . SVG Version: 6.00 Build 0)  -->
<svg version="1.1" id="Layer_1" xmlns="http://www.w3.org/2000/svg" xmlns:xlink="http://www.w3.org/1999/xlink" x="0px" y="0px"
	 viewBox="0 0 500 500" style="enable-background:new 0 0 500 500;" xml:space="preserve">
<path d="M270.7,293.6c8.1,6.8,11.6,17.5,10.7,29.2l-8.5,5.7l7.5,1.2c-2,8.9-6.4,18.1-13.3,26.2c-0.9,1.1-1.9,2.2-2.9,3.2l-10-7
	l7.5,9.5c-3.4,3.2-7,5.9-10.7,8.1l-7.3-2.1l5.1,3.3c-8.7,4.7-17.8,6.8-26.1,5.9l-3.4-8.7l-3,7.4c-3.7-1.1-7.1-2.9-10.1-5.5
	c-4.3-3.6-7.2-8.2-9-13.5c14.3,2,32.2-6,45.5-21.7c13-15.4,17.9-34,14-47.6C261.9,288.1,266.7,290.2,270.7,293.6z"/>
<path d="M292,276v1h-56v-2.1c0-3.2,0.4-6.2,1.1-9l1.6,4.8l-0.1-9.3c1.6-3.6,3.8-6.6,6.3-8.6l6.2,6.1l-3-8.1c1.4-0.6,3-0.9,4.5-0.9
	h22.4c1.2,0,2.4,0.2,3.5,0.5l-2.3,6.4l5.2-5.1c3,1.8,5.5,4.8,7.4,8.7l-0.1,8.2l1.5-4.5c0.9,2.9,1.5,6.1,1.6,9.4l-3.2-0.1L292,276z"
	/>
<path d="M236,278v-1h56v2.1c0,3.2-0.4,6.2-1.1,9l-1.6-4.8l0.1,9.3c-1.6,3.6-3.8,6.6-6.3,8.6l-6.2-6.1l3,8.1c-1.4,0.6-3,0.9-4.5,0.9
	h-22.4c-1.2,0-2.4-0.2-3.5-0.5l2.3-6.4l-5.2,5.1c-3-1.8-5.5-4.8-7.4-8.7l0.1-8.2l-1.5,4.5c-0.9-2.9-1.5-6.1-1.6-9.4l3.2,0.1L236,278
	z"/>
<path d="M281.1,271.5c5.8-8.9,16-13.6,27.7-14.1l6.7,7.8l0.3-7.5c9.1,0.9,18.7,4.3,27.6,10.1c1.2,0.8,2.4,1.6,3.5,2.5l-5.8,10.8
	l8.6-8.6c3.5,3,6.7,6.2,9.3,9.7l-1.2,7.4l2.6-5.5c5.7,8,8.8,16.9,9,25.3l-8.2,4.4l7.7,2.1c-0.7,3.8-2.1,7.4-4.2,10.6
	c-3.1,4.6-7.3,8.2-12.4,10.5c0.3-14.4-9.7-31.3-27-42.6c-16.8-11.1-35.9-13.8-48.9-8.3C276.7,280.8,278.2,275.9,281.1,271.5z"/>
<path d="M263.2,258.9c-9-5.7-13.9-15.8-14.5-27.5l7.7-6.8l-7.6-0.2c0.8-9.1,4-18.8,9.7-27.8c0.8-1.2,1.6-2.4,2.4-3.6l10.9,5.6
	l-8.7-8.5c2.9-3.6,6.1-6.8,9.5-9.4l7.5,1.1l-5.5-2.6c7.9-5.8,16.8-9.1,25.1-9.4l4.5,8.2l2-7.8c3.8,0.6,7.4,2,10.7,4.1
	c4.7,3,8.3,7.2,10.7,12.2c-14.4-0.1-31.1,10.2-42.2,27.6c-10.8,17-13.2,36.1-7.5,49.1C272.7,263.2,267.7,261.7,263.2,258.9z"/>
<path d="M246.1,279.6c-5.5,9.1-15.6,14.1-27.2,15l-6.9-7.5l-0.1,7.6c-9.1-0.6-18.8-3.6-27.9-9.2c-1.2-0.8-2.4-1.5-3.6-2.4l5.4-11
	l-8.3,8.8c-3.6-2.9-6.9-6-9.6-9.3l0.9-7.5l-2.5,5.6c-6-7.8-9.4-16.6-9.8-24.9l8.1-4.6l-7.8-1.8c0.6-3.8,1.8-7.4,3.9-10.8
	c2.9-4.7,7-8.4,12-10.9c0.2,14.4,10.8,31,28.4,41.7c17.2,10.5,36.3,12.5,49.2,6.6C250.2,270.1,248.9,275.1,246.1,279.6z"/>
</svg>
