<?xml version="1.0" encoding="utf-8"?>
<!-- Generator: Adobe Illustrator 22.0.1, SVG Export Plug-In . SVG Version: 6.00 Build 0)  -->
<svg version="1.1" id="Layer_1" xmlns="http://www.w3.org/2000/svg" xmlns:xlink="http://www.w3.org/1999/xlink" x="0px" y="0px"
	 viewBox="0 0 500 500" style="enable-background:new 0 0 500 500;" xml:space="preserve">
<path d="M157,345.3l75,21.7c-7.8-4.2-12.8-12.2-13-21c-0.2-9.2,4.8-17.9,13-22.3C207,330.9,182,338.1,157,345.3z"/>
<path d="M379,350H219c-2.8,0-5-2.3-5-5l0,0c0-2.8,2.3-5,5-5h160c2.8,0,5,2.3,5,5l0,0C384,347.8,381.8,350,379,350z"/>
<polygon points="369.1,314.2 339.1,340.9 349,349 "/>
<polygon points="380.1,315.2 350.1,341.9 360,350 "/>
<polygon points="385.7,319.3 360.7,344.7 366,349 "/>
<polygon points="388.3,323.4 367.3,343.4 373,348 "/>
<polygon points="368,374.3 336.3,349.4 346.7,340.1 "/>
<polygon points="377.4,372.4 345.8,347.5 356.2,338.2 "/>
<polygon points="383.4,367.6 356.9,343.7 362.5,338.7 "/>
<polygon points="386,363.1 363.9,344.4 369.8,339.1 "/>
</svg>
