<?xml version="1.0" encoding="utf-8"?>
<!-- Generator: Adobe Illustrator 22.0.1, SVG Export Plug-In . SVG Version: 6.00 Build 0)  -->
<svg version="1.1" id="Layer_1" xmlns="http://www.w3.org/2000/svg" xmlns:xlink="http://www.w3.org/1999/xlink" x="0px" y="0px"
	 viewBox="0 0 500 500" style="enable-background:new 0 0 500 500;" xml:space="preserve">
<path d="M300.5,257.6c0,10.6-5.9,20.2-15.4,27l-9.8-2.8l3.9,6.5c-8.1,4.2-18,6.7-28.6,6.7c-1.5,0-2.9,0-4.3-0.1l-1.1-12.2l-2.5,11.9
	c-4.6-0.5-9-1.5-13.1-3l-3.1-6.9l0.8,6c-9.2-3.6-16.7-9.3-21.4-16.2l4.5-8.2l-7.6,2.5c-1.5-3.5-2.3-7.3-2.3-11.2
	c0-5.6,1.6-10.8,4.5-15.6c7.7,12.2,25.3,20.8,46,20.8c20.2,0,37.5-8.2,45.4-20C299,247.4,300.5,252.4,300.5,257.6z"/>
<path d="M271,254.5v0.5c0,0.9-0.1,1.8-0.3,2.6l-2,1l1.7,0c-1.5,4.8-6.1,8.4-11.4,8.4h-16c-6.6,0-12-5.4-12-12v-1
	c0-1.5,0.3-3,0.8-4.3l1.2,2.3l-0.1-4.5c1.1-1.7,2.7-3.2,4.5-4.1l4.5,2.9l-2.1-3.9c1-0.3,2.1-0.5,3.2-0.5h16c0.9,0,1.7,0.1,2.5,0.3
	l-1.7,3.1l3.7-2.4c2.1,0.9,3.9,2.3,5.3,4.2l-0.1,3.9l1.1-2.2c0.7,1.4,1.1,2.9,1.2,4.5l-2.3,0L271,254.5z"/>
<rect x="248.5" y="151.5" width="4.5" height="100"/>
</svg>
