<?xml version="1.0" encoding="utf-8"?>
<!-- Generator: Adobe Illustrator 22.0.1, SVG Export Plug-In . SVG Version: 6.00 Build 0)  -->
<svg version="1.1" id="Layer_1" xmlns="http://www.w3.org/2000/svg" xmlns:xlink="http://www.w3.org/1999/xlink" x="0px" y="0px"
	 viewBox="0 0 288 288" style="enable-background:new 0 0 288 288;" xml:space="preserve">
<style type="text/css">
	.st0{fill:#CCCCCC;}
	.st1{fill:#E6E6E6;}
	.st2{fill:none;stroke:#000000;stroke-width:6;stroke-miterlimit:10;}
</style>
<path class="st0" d="M33.9,266.1c-6.6,0-12-5.4-12-12v-39.9l17.7-28.8l59.7-96.9l57.8,93.8l28.2,45.8l23.5,38.1H33.9z"/>
<path class="st0" d="M76.9,266.1h-43c-6.6,0-12-5.4-12-12v-107l17.7,38.3L76.9,266.1z"/>
<polygon class="st0" points="250,266.1 118.3,266.1 157.1,182.3 184.1,123.8 208.8,177.2 "/>
<path class="st0" d="M266.1,148.9v105.2c0,6.6-5.4,12-12,12h-86.4l17.6-38.1l23.5-50.9L244,101L266.1,148.9z"/>
<path class="st1" d="M121.2,258.3l4.5,7.8H33.9c-6.6,0-12-5.4-12-12v-9l5.1-8.8l40.9-70.7L121.2,258.3z"/>
<polygon class="st1" points="188.8,266.1 116.7,266.1 121.2,258.3 152.8,203.7 175.4,242.9 "/>
<path class="st1" d="M266.1,198.8v55.3c0,6.6-5.4,12-12,12H162l13.4-23.2l58.1-100.6L266.1,198.8z"/>
<path class="st1" d="M44.1,266.1H33.9c-6.6,0-12-5.4-12-12v-26.5l5.1,8.8L44.1,266.1z"/>
<path class="st2" d="M266.1,33.9v220.2c0,6.6-5.4,12-12,12H33.9c-6.6,0-12-5.4-12-12V33.9c0-6.6,5.4-12,12-12h220.2
	C260.7,21.9,266.1,27.3,266.1,33.9z"/>
</svg>
