<?xml version="1.0" encoding="utf-8"?>
<!-- Generator: Adobe Illustrator 22.0.1, SVG Export Plug-In . SVG Version: 6.00 Build 0)  -->
<svg version="1.1" id="Layer_1" xmlns="http://www.w3.org/2000/svg" xmlns:xlink="http://www.w3.org/1999/xlink" x="0px" y="0px"
	 viewBox="0 0 288 288" style="enable-background:new 0 0 288 288;" xml:space="preserve">
<style type="text/css">
	.st0{fill:#FFFFFF;stroke:#000000;stroke-width:3;stroke-miterlimit:10;}
	.st1{fill:#FFFFFF;stroke:#000000;stroke-width:5;stroke-miterlimit:10;}
</style>
<path class="st0" d="M263.8,275.5H24.3c-6.6,0-12-5.4-12-12V24c0-6.6,5.4-12,12-12h239.5c6.6,0,12,5.4,12,12v239.5
	C275.8,270.1,270.4,275.5,263.8,275.5z"/>
<path class="st0" d="M228,177.7H59.4c-11.6,0-21.1-7.4-21.1-16.5v-44c0-9.1,9.5-16.5,21.1-16.5H228c11.6,0,21.1,7.4,21.1,16.5v44
	C249.1,170.3,239.6,177.7,228,177.7z"/>
<polygon class="st1" points="61.5,22.6 72.8,45.2 97.8,48.9 79.6,66.5 83.9,91.4 61.5,79.7 39.2,91.4 43.5,66.5 25.4,48.9 
	50.3,45.2 "/>
<polygon class="st1" points="143.7,22.6 154.9,45.2 179.9,48.9 161.8,66.5 166,91.4 143.7,79.7 121.3,91.4 125.6,66.5 107.5,48.9 
	132.5,45.2 "/>
<polygon class="st1" points="226.4,22.6 237.6,45.2 262.6,48.9 244.5,66.5 248.8,91.4 226.4,79.7 204,91.4 208.3,66.5 190.2,48.9 
	215.2,45.2 "/>
<g>
	<path d="M70.7,137.7c0-1.7-0.6-3.2-1.8-4.4s-2.7-1.8-4.4-1.8v18.7h-6.3v-25h6.3c3.5,0,6.4,1.2,8.8,3.7s3.7,5.4,3.7,8.8V169h-6.3
		V137.7z"/>
	<path d="M95.7,131.5H80.1v-6.3h15.6V131.5z M95.7,140.9H80.1v-6.3h15.6V140.9z M95.7,150.2H80.1V144h15.6V150.2z"/>
	<path d="M108.2,129.4c0.2-0.2,0.3-0.4,0.5-0.6c2.4-2.4,5.4-3.7,8.8-3.7v6.3c-1.7,0-3.2,0.6-4.4,1.8s-1.8,2.7-1.8,4.4
		c0,1.7,0.6,3.2,1.8,4.4s2.7,1.8,4.4,1.8v6.2c-3.5,0-6.4-1.2-8.8-3.7c-0.2-0.2-0.4-0.4-0.5-0.6c-0.2,0.2-0.3,0.4-0.5,0.6
		c-2.4,2.4-5.4,3.7-8.8,3.7V144c1.7,0,3.2-0.6,4.4-1.8s1.8-2.7,1.8-4.4c0-1.7-0.6-3.2-1.8-4.4s-2.7-1.8-4.4-1.8v-6.3
		c3.5,0,6.4,1.2,8.8,3.7C107.8,129.1,108,129.3,108.2,129.4z"/>
	<path d="M133.2,131.5v18.7h-6.3v-18.7h-6.3v-6.3h18.8v6.3H133.2z"/>
	<path d="M158.2,150.2c0,4.3,1.5,8,4.6,11c3.1,3.1,6.7,4.6,11,4.6v6.3c-6,0-11.2-2.1-15.5-6.4c-4.3-4.3-6.4-9.4-6.4-15.5v-37.5h6.3
		V150.2z"/>
	<path d="M176.9,131.5h-15.6v-6.3h15.6V131.5z M176.9,140.9h-15.6v-6.3h15.6V140.9z M176.9,150.2h-15.6V144h15.6V150.2z"/>
	<path d="M192.6,137.7v-12.5h6.3v12.5c0,3.5-1.2,6.4-3.7,8.8s-5.4,3.7-8.8,3.7h-6.3v-25h6.3V144c1.7,0,3.2-0.6,4.4-1.8
		S192.6,139.5,192.6,137.7z"/>
	<path d="M217.6,131.5h-15.6v-6.3h15.6V131.5z M217.6,140.9h-15.6v-6.3h15.6V140.9z M217.6,150.2h-15.6V144h15.6V150.2z"/>
	<path d="M226.9,150.2c0,1.7,0.6,3.2,1.8,4.4s2.7,1.8,4.4,1.8h3.1v6.3h-3.1c-3.5,0-6.4-1.2-8.8-3.7s-3.7-5.4-3.7-8.8v-40.6h6.3
		V150.2z"/>
</g>
<path class="st0" d="M228.4,264H59.7c-11.6,0-21.1-7.4-21.1-16.5v-44c0-9.1,9.5-16.5,21.1-16.5h168.7c11.6,0,21.1,7.4,21.1,16.5v44
	C249.5,256.6,240,264,228.4,264z"/>
<g>
	<path d="M63.7,221.7c0-1.7-0.6-3.2-1.8-4.4s-2.7-1.8-4.4-1.8v18.8h-6.3v-25h6.3c3.5,0,6.4,1.2,8.8,3.7c0.2,0.2,0.4,0.4,0.5,0.6
		c0.2-0.2,0.3-0.4,0.5-0.6c2.4-2.4,5.4-3.7,8.8-3.7h6.3v37.5h-6.3v-31.3c-1.7,0-3.2,0.6-4.4,1.8s-1.8,2.7-1.8,4.4v12.5h-6.3V221.7z"
		/>
	<path d="M98.1,209.2h6.3v25h-6.3V228h-6.3v6.3h-6.3v-12.5c0-3.5,1.2-6.4,3.7-8.8S94.6,209.2,98.1,209.2z M98.1,221.7v-6.3
		c-1.7,0-3.2,0.6-4.4,1.8s-1.8,2.7-1.8,4.4H98.1z"/>
	<path d="M107.4,206.1v-6.3h6.3v6.3H107.4z M113.7,209.2v25h-6.3v-25H113.7z"/>
	<path d="M129.3,221.7c0-1.7-0.6-3.2-1.8-4.4s-2.7-1.8-4.4-1.8v18.8h-6.3v-25h6.3c3.5,0,6.4,1.2,8.8,3.7s3.7,5.4,3.7,8.8v12.5h-6.3
		V221.7z"/>
	<path d="M160.6,221.7c0-1.7-0.6-3.2-1.8-4.4s-2.7-1.8-4.4-1.8v18.8h-6.3v-25h6.3c3.5,0,6.4,1.2,8.8,3.7c0.2,0.2,0.4,0.4,0.5,0.6
		c0.2-0.2,0.3-0.4,0.5-0.6c2.4-2.4,5.4-3.7,8.8-3.7h6.3v37.5h-6.3v-31.3c-1.7,0-3.2,0.6-4.4,1.8s-1.8,2.7-1.8,4.4v12.5h-6.3V221.7z"
		/>
	<path d="M198.1,215.5h-15.6v-6.3h15.6V215.5z M198.1,224.9h-15.6v-6.3h15.6V224.9z M198.1,234.2h-15.6V228h15.6V234.2z"/>
	<path d="M213.7,221.7c0-1.7-0.6-3.2-1.8-4.4s-2.7-1.8-4.4-1.8v18.8h-6.3v-25h6.3c3.5,0,6.4,1.2,8.8,3.7s3.7,5.4,3.7,8.8v12.5h-6.3
		V221.7z"/>
	<path d="M229.3,221.7c0,1.7,0.6,3.2,1.8,4.4s2.7,1.8,4.4,1.8v-18.8h6.3v25h-6.3c-3.5,0-6.4-1.2-8.8-3.7s-3.7-5.4-3.7-8.8v-12.5h6.3
		V221.7z"/>
</g>
</svg>
